# xmcd
#
# Track frame offsets:
#	150
#	11919
#	25272
#	37437
#	52327
#	64809
#	78641
#	88373
#	107201
#	115959
#	129347
#	142022
#	154558
#	165438
#	175272
#	185594
#	198146
#	209426
#	221963
#	231375
#	250747
#	260153
#	275282
#	290218
#
# Disc length: 4012
#
# Revision: 3
# Processed by: cddbd v1.5.1PL0 Copyright (c) Steve Scherf et al.
# Submitted via: VisiTrax 2.9.9.202 - For more info visit www.synapsa.com
# Normalized: r2:DSETVAR1
#
DISCID=820faa18
DTITLE=Various Artist - Viva Las Vegas
DYEAR=1900
DGENRE=
TTITLE0=Frank Sinatra - All Of Me
TTITLE1=Marylin Monroe - Wanna Be Loved By You
TTITLE2=Dean Martin - Everybody Loves Somebody
TTITLE3=Liza Manelli - New York New York
TTITLE4=Al Martino - Spanish Eyes
TTITLE5=Debbie Reynolds - Tammy
TTITLE6=Fred Astaire - Puttin On The Ritz
TTITLE7=Tony Bennett - Fly Me To The Moon
TTITLE8=Shirley Bassey - Kiss Me Honey Honey
TTITLE9=Louis Prima - Buona Sera
TTITLE10=Bobby Vinton - Blue Velvet
TTITLE11=Matt Monro - Born Free
TTITLE12=Louis Armstrong - Hello Dolly
TTITLE13=Conway Twitty - It's Only Make Believe
TTITLE14=Connie Francis - Who's Sorry Now
TTITLE15=Dinah Washington - Mad About The Boy
TTITLE16=Bing Crosby - Swinging On A Star
TTITLE17=Eartha Kitt - My Heart Belongs To Daddy
TTITLE18=Danny Kaye - Wonderful Copenhagen
TTITLE19=Ella Fitzgerald - Get A Kick Out Of You
TTITLE20=Doris Day - Whatever Will Be Will Be
TTITLE21=Tom Jones - Delilah
TTITLE22=Engelbert Humperdinck - Release Me
TTITLE23=Andy Williams - Can't Get Used To Losing You
EXTD=
EXTT0=
EXTT1=
EXTT2=
EXTT3=
EXTT4=
EXTT5=
EXTT6=
EXTT7=
EXTT8=
EXTT9=
EXTT10=
EXTT11=
EXTT12=
EXTT13=
EXTT14=
EXTT15=
EXTT16=
EXTT17=
EXTT18=
EXTT19=
EXTT20=
EXTT21=
EXTT22=
EXTT23=
PLAYORDER=
